{"accessors":[{"bufferView":0,"byteOffset":0,"componentType":5126,"count":160,"max":[0.5274000244140625,1.5093499755859377,0.5345],"min":[-0.5274000244140625,-0.417989990234375,-0.5345],"type":"VEC3"},{"bufferView":1,"byteOffset":0,"componentType":5123,"count":444,"type":"SCALAR"}],"asset":{"generator":"Open CASCADE Technology [www.opencascade.com]","version":"2.0","extras":{"Read files list":"base-plate-1.stl"}},"bufferViews":[{"buffer":0,"byteLength":1920,"byteOffset":0,"byteStride":12,"target":34962},{"buffer":0,"byteLength":888,"byteOffset":1920,"target":34963}],"buffers":[{"byteLength":2808,"uri":"base-plate-1.bin"}],"meshes":[{"name":"base-plate-1.stl","primitives":[{"attributes":{"POSITION":0},"indices":1,"mode":4}]}],"nodes":[{"mesh":0,"name":"base-plate-1.stl"}],"scene":0,"scenes":[{"nodes":[0]}]}