{"accessors":[{"bufferView":0,"byteOffset":0,"componentType":5126,"count":200,"max":[0.45,1.5063499755859376,0.62],"min":[-0.45,-0.444760009765625,-0.62],"type":"VEC3"},{"bufferView":1,"byteOffset":0,"componentType":5123,"count":516,"type":"SCALAR"}],"asset":{"generator":"Open CASCADE Technology [www.opencascade.com]","version":"2.0","extras":{"Read files list":"base-plate-2.stl"}},"bufferViews":[{"buffer":0,"byteLength":2400,"byteOffset":0,"byteStride":12,"target":34962},{"buffer":0,"byteLength":1032,"byteOffset":2400,"target":34963}],"buffers":[{"byteLength":3432,"uri":"base-plate-2.bin"}],"meshes":[{"name":"base-plate-2.stl","primitives":[{"attributes":{"POSITION":0},"indices":1,"mode":4}]}],"nodes":[{"mesh":0,"name":"base-plate-2.stl"}],"scene":0,"scenes":[{"nodes":[0]}]}